/* XPM */
static char *result[] = {
/* columns rows colors chars-per-pixel */
"100 100 84 1 ",
"  c #6D9EE7",
". c #6E9EEA",
"X c #6FA0EB",
"o c #72A2E7",
"O c #74A4EB",
"+ c #78A7EC",
"@ c #77A8EC",
"# c #7BABED",
"$ c #7FB0EE",
"% c #77A7F1",
"& c #77A9F0",
"* c #7DADF0",
"= c #7EB0F0",
"- c #81AFED",
"; c #84B3EE",
": c #8AB6EE",
"> c #87B8ED",
", c #8DB9EE",
"< c #94BDEE",
"1 c #99BFEE",
"2 c #83B3F1",
"3 c #89B6F0",
"4 c #8DBAF1",
"5 c #94BEF1",
"6 c #99BFF0",
"7 c #97C0EF",
"8 c #9CC2EE",
"9 c #97C0F1",
"0 c #9CC2F1",
"q c #A3C5EE",
"w c #A9C7EE",
"e c #A6C8EE",
"r c #ACCAEE",
"t c #B3CDEE",
"y c #B9CFEF",
"u c #AED0EF",
"i c #B5D2EE",
"p c #BCD4EF",
"a c #B7D8EF",
"s c #BED9EE",
"d c #A3C5F1",
"f c #A9C7F1",
"g c #A6C8F0",
"h c #ACCAF1",
"j c #B2CEF1",
"k c #B8CFF0",
"l c #AED0F1",
"z c #B4D2F1",
"x c #BBD5F0",
"c c #BDDAF1",
"v c #C1D6EE",
"b c #C4DBEE",
"n c #CBDDED",
"m c #D1DFEB",
"M c #C1D6F0",
"N c #C3DBF0",
"B c #CADDF0",
"V c #C5E1EE",
"C c #CCE2EE",
"Z c #CFE8EE",
"A c #D5E3E7",
"S c #DDE5E7",
"D c #D3E4ED",
"F c #DAE6EC",
"G c #D6E8EE",
"H c #DCEAED",
"J c #C5E1F1",
"K c #CBE2F0",
"L c #D3E5F0",
"P c #DAE7F1",
"I c #D5E8F0",
"U c #DCEAF0",
"Y c #E0E7EC",
"T c #E3ECED",
"R c #EAEEED",
"E c #F0EFEE",
"W c #E6F0EF",
"Q c #EDF0EE",
"! c #F1F2EE",
"~ c #E4EDF0",
"^ c #EAEEF0",
"/ c #E7F0F0",
"( c #ECF0F1",
") c #F1F2F0",
/* pixels */
"34$;-##OOOOo%OOO;,<0dhjfjyknnBvbpfq<2#+OOO.OO.O..OOO;#;;4467frqjjpxxxNnvMvtdfdjjyhtwdqq5<:;2#;;#,,,6",
"$####OO@OOOo.X+##;:8qqqrqqdtjttpkr1:#+OOOOOOoOO.O##+##O#,<8088rqqrwhjjjpMMtwddfwqwd017,4#o#@##+###;#",
"-##O#O.oO .XO.+####:60gqfqrqwdqf17<,##+Oo@OOoo...##O#;##;67q0qqdrqdfr6rtptkk81<51<6<5,;#@####OOOO###",
"#&oOoOOO.O.XO.X.#@O$:6778806q806d5<34#X+@OO+OOO.#OOXo##;--4153,6d8086d8wdf810<3;:2;,;;;OO##OOO#O@@@#",
".Oo%o.O..OO.OOOXOOX*#2<66dd7<1065<,:;2*+OoX+OOOOO#OO#OO#2-;;#;;4;,90<<0<0766;2&2##*;###o#OOOO&###oOO",
"@OO%o%O.%X...OXO .%X#;<<5<d<<0<:-2#,--;&+-+O;@;3$;##O-###*#;2:-5;-;,66<;:433*;++++#-#+O*#.O##Ooo*O@O",
" OOo.O. OO. ..O.O..O;:0q6,<<<d,<<2#;;;,3#O#,461q01<;,:#;;#:,:<60,:587<8<2-##+ooOO####-#+O#O#OoO+OOO#",
"OOo.O%..OO O@%ooOO--;,<01180dd11<<<;5::61,681htkfrq7d80<d<7<6076706807<,,:;#-+O&##+*#o+*#oOO+#O#OX O",
"..oOOO.O@O.&oX%o@O2,458qd066ffffdd16<001hgfdjtxvMMxjffjjhrjffjdddqdf006<32####oOO##o%OOO@*#@OO+##OO#",
"%o%oOO+O%O@@o.%.OX#=-2:d666dffjrhtqff81d6qhrpMvnnmbvMxNvMMkMxjfrfjffd0q0:;;-#2O@Oo&O;##*#####2####Oo",
"OO..OXO#oO.XOOXoXOO.@O-,ddqfjyvvvvpyj899<dhctbvbnbvvMvvvyhtyjjjjtptjjdd<5<:;+#OO#O######2-$2-+2;*@#O",
"+oOO#OOOOOO#O#O%#@;;;;<:18rwvvvvvbNtq<:##,1qtNvbnbvBNvxxpqhrwrpkpypytfqwq1<5:##@##O+#;##+;40<:o####O",
"O##O##O2%#OO####;60000<<dftjvvbxvMvpd-O##-4<fjpbbnMvpMwtfdqtfhjMvzcpjhhqd114>2#%#2###-+O-46d00,-2###",
"##=O++#@ooO+O%*22959,2#;<dhvMNbnNMMh,#%=+o2,08qtkpxMcxqdfh0dffddfwjjkjhrdd5#%OO@##2#2;3670frfdfd65:#",
"dq90<<5-*@####$33,986,,<61jMvvvbMkq,:##O###:4977ddfdqdd76787dqfdwwdthddrg62OX%@o+.##-5q6htjxykvvykjd",
"ytjrrddddd7<<<:,105<<d88<qwpvvvvt06<,;;##+##;;;<<75,4:63,<d770800<58q69<6-OooXoO.O.#2<1djyMvnvvvNvnv",
"pvMxprtyxjf6616ddfddddq1ddhyvvxvpdq86;###@OO$@@-#3;;;;#;#235,3;-,,$2,;2;@@#XO@=O.%o#;<8ftvvBvvbvbMvv",
"ppMMvNxMkzyjddddqjtjrfjhjfvMvbMvcwq19;=##2OO#O$;+&O##@##2###*@###;#=$#@%@*.OXXXOOO+*26fjvNNNnnnvbBNy",
"vvNBnMkfhfMvBvpxMxMNvvvMvvMvBnnbvfqq6,-2#X###O@####&#@OO##O#O##*#O@##*oXOO@OXXOOOOO#3qyMMnDBnBvBvbvM",
"nmvnmnvrjMbMMvnNMnnmmmnbbBnnmYHmBMrf0,;#2O#O@O@@##O+#;-#OO#O@*@#O@#@+O*OO@OOOOO##+;:7ivMnnHYAnnnnvnm",
"FFnnnnBnbnBBMvvvvnmmmBnmBnnFFFTYnMyfd<:2#+O#O@##O@###O#+#@#OOO@#$@####O+#@O.O O#+#;<8xBFSRTRFFmDnFmn",
"mmADBnbMnbvvvxvBnFFmmBvbBmnnmnmFmMkw0<,-+###*###@#O##@###O=@*2#@###@##-2**#O@@#=#;5qdrbmYTFSYmBnDmPm",
"LnBDnBnvvvMMvnvvmmYFBBvnMnmmPBCDnvyfd922#*+O=*O@OOO@##OO#%o%o#O@@$O22363*2*OOOO*#-<dgxBbmAbbBmmFmBnn",
"BKnBnbnbMvxxNMpxxMBnNMvBBNMmmmnbnNMrd822#&#;###OO##OOOOOO#O@%##@O#*-,0qr0,;:$###;;6dtNvnLmnnLTYmmmCn",
"nnnnAnBnvvvxtpytypMvvnNbNvvnnnBbcjtr1,-+#-:<;#@#O@##o#OOO##@O#####;:7drtyjqdq1,q12<qtvbnvST^mSFvnFnn",
"nnnFFDnnbvnvpvvMnvvMsvNvBvvvNBvvxqdd6:--O##7755:;;;2-###O@OO#@$@##1drMbBnbvpMbxMjjttftkvBnmmYFYmFnnm",
"DFFYRYYSFnNMMccvnbMpxcvvcpcMMMcMrd1552--*O598d0656:3;;2#@@@O@#@@230tMmSFmnnmmmbMvbvbbMMbBnmYYYTTmmFm",
"DnFFYY~YFnnnNNBBMNcjtxivMxthfjgjdf153+2*##58q006007d0,#OO###OO;>570jbmSPFmFYFnBMnDFFFLmLLmUFFFmPmmmB",
"BFBnmLFmFLBNNbvvvvvvsxtpxw66017qqd0;+####$$6708tfrxz8###O###2-656htkbmLmnBPmBvnNnnFBvBnnbbbnnnNnMNnn",
"BnDmBnFFmmmMMvpNMvvBbvNprt7dq6d845:-#####O#:<6e7d7q3#O+O##++#2<98hwpbmFmmmnNsMMNvnnbNvvbbDnbbbMpNBnB",
"BmFAnFmSTSSmNvvxpMMnNMbMcvjhxtd,#2#2**#OO#&O#;5<33#OO@*#o@#-2;<jjjtMBnmFFnnMMMvvbbNvvNvNCmDnnBBnmnLv",
"nnmmADnvvBBBxvcxvcMvnBNNbvjd804O=%##&##O#*#@*#;4$2#O*O*#OO&#20hsbMMxyMxbMNnMMMzMbMvMcvpMMvvMvbnDmmFB",
"BmnKnnvvMMvbMMscscMNNnNnnvf,:#######@##O##+#####;##O@#####@;,dibnnvxhxxvNvNxjtzpyxypttcvvpMxMbbFmYFn",
"bbbvmnBnBBbMcpkttyptjyvxMMt1:###O;o@##$####################;>,qvbFANphktrzwqrrffqqjjrptxxvMBnnnDCnnn",
"pikpvvsvvbctrrtjfqrwrrxtxtq01,###Oo#$##@$#####O###--#O@#@#;#;<dxvBvxzd00600dd77010qqqrqqrvMvvvMvvsyi",
",,<0qfrrjjw6618dqdd1hjzikfqdfq;#O##$#####@##+########O##O#O#*;0drjfqq10<6<601q0516d55<7516hcjxpjr76,",
":7qdd<90d0d96666<0d6dg0rtfhff84+O@##*#+*##O#*##O###@@%#OO=O-***=,809065:40666455d<,#;-34080hedgqdd5-",
"4<qd;247007gfd60d60qddhrdddf1q0,:;###;###;#;$2;;##@;##;####+###2:,;5:2-2#;,::364,<<:5610d7068q,:5,<3",
";;;;,;$405<8tdq0qqwffjjxjwhqd166000,;,90<,;#;$,<,,:2;#;$########+;;,;;-##;2:,::;;;;-4<7<9<<661,;#;:-",
":4::,5#:6087ffjjtjhtrtjfjtwhwhff8d84:3<089q0<0qdfq888,:;,:;;*#;#2:2:;3-:;2;2:<35<:;,26688<90;2;;#;;;",
",,4,,32#*6djzzjjjjjtxkMxjrjfjjhjrjhdh0606ddfdtxpxxtttq6d0<3#2##=2;;;,6<515;5065<655:;6600g6@O###;:,5",
"7,65>,:;2000dhrhxjrMizvvNiphfjwwpsnbvMxzjjhrysvvMbnvbvzkq0<<1,<3,3;5601105566066659<<6<6649###2;5<74",
"4<97:<,::4,498dqqwqwkpsMvnvssMsvmbmmbvspvkMvbbNvcpbnbvMvjqd1d8666q0600dtfrw66qq1<<d7q5157<;2#$3,,67,",
"48<71::,,2,1qrpjdqtpvbvvvvMcvvnnmmmnbvvNvcvnvnnbbvvBnvvvtrhqrq78q8dw8qdtsMcpjjjrq8wqrqqq9,,4;#,<781<",
"7q00q044:60ddj0dfjMvbNnnnBnvvMMvvnnmmFmADAnbnNvnbnnFmBNNvMMxttffdq0dqhjNvvNcpspMcjhtqr1dqq9<<47qdfg8",
"qfgfqw0q0q950g06q6fxMxvbBnmFnMMMsvvNBBmFTYFFnMbvnDDDFnBbNNnBNxtfd8dddrtbMMBvbvvkMkdwddrq0gdfzhzpxzrf",
"rtxxccMsyr8ddqqdd1<ryjtpvnYFFSnCnnbMNvnmSTYSmMnnnDnnmBvbnvNvMyhfd1rqqhrcsNbnnnBvcppjfwrq0hrpnbBbvNcx",
"siyppNvbBKthttjrwd81q0rpMNnnvFnAnbvnnnmTR^TAnNvbBnnDmBbbnnmnbsidqrddqhrhjxNNvNNvvnbckpxjtpnFmLbbpcsx",
"hjrpvcvbCCVNbbvsxftpprffrsNsNvbnnbnFASRTTYTFnbvvssvbMnnDnmAnNNxjrq08dd8qwtpzspvnbbbvxsvMbbDDAbvvcipt",
"qtzxixNvNsbbbbnbbbcjhwd008fzjxvCmnDmBASYYFTTYDnnMBbvMBBmFKnnNNjdgd0dfddqddfhzNMMNcbbMNNMvNvbbNvsxr80",
"qrjftNMsvNbbvpbCbvMtf6:45<0qwjcbBnMnnFnnnvbnnCnnCnNvvNnnbnMvpxidq80706q<8drhMvcNbNvCnnnNCbbbvsNithzf",
"xitxitxcsNvbNcxspcMctd0::<f0qwrixcbBmmDbbt8qhrtbvvvbbMbnbvtsptqd8867778qdqjrqrtsvcvvvnbbCvbvvcistpti",
"vsNvcMcpNMvvvctjrthw70<91wjktkzpxsbnvnnNvviwhqqxvbNbbnNnvcpstff74,49<00707qq8djdqjypsvbBnvbvvvvvNsNv",
"bvMsbcNvcMvcMptwrqdd<964;,<qjsBNsMpscsxrtrrwhjtcvvvctspitqgw0<075<0,<06708qdqwfdfjxpccvbvNNvbbbbNvvc",
"DmFBbNNBvMsMcpNzh043,463:423,dhzjjzjxjq0<d88fxsvbNbNprhfq09040899595590<6090d80hddtsvNvsbvNBbbNnCnAD",
"KFmmmBnnBvcjjhzzufqdddhff<;23->;,qtjtiirsvvvMMNBCnCCnMcttxhr00<0<,94,59596<8dqfftzkvNvccscNCmCnCDmDC",
"vbNbppvvtwqw018<4<<<<<560;;;<<:<gjtipMvNbvbvspvbNnDmCbbMBprqrq1<77,<,,<7<q0088qdjrrrprrrrrtsppsvMBms",
"dqfdqrqqfxg000<55<85:;>2;><<-,,<dripcbmKbbbbvvNNvbbDFnNNbvxrhr8<843,,75957q0qwhhpjffq66q0hzrfwqthhr8",
"df808<d734324645555<654>2<44345;33zBBnDYDFDbnvbnBDGFYYnBsNNzhd890,449597d0d0qddjtdddf0fqg000qq0<6qdf",
"irhd86<7040544056,5<35939,55,444,,qNNnNNDFYFDNDCnmFFFFnNbNvcd007605<<9349<1d87068q01656dd694<4350dwt",
"hpsjjqq<811<6065q51774,7<><907<<7><qjptipNbnMcspvnbbvccppxegqq665,071<,15<<0q1qrtxxzrq11:,<51<7q8qfw",
"wjirjrhw0618d88777<<q777,7<0<<6<<<<hh6fqq78e1wqtccvsyhq<d1<<058<,<97<887<:9whivbvpcMNMvyd<,<qq880qqq",
"xxpjzftqdf004539954,70,0550500<8960<d<956<5666fqjrdff750809<49<<49556549058ffpNNbLnBbMczjzf880dfhjjr",
"spxztrq8drdddq869906<90q00665<0775695599<03<d0766d009067<00d0<05976573,dfffzxMNNnnKnKvxczcvcsqfhhzMN",
"bvprcffjdddqq8d60q7dd00788997645<0588<50q07d<00877,94<7000069049<700dqgfedjrfsNbnvnBMNvzNcsNcxzMvsvB",
"mNvsr1fqhg8fdq80q88q<860q808q<617<1701<06q78807<<<7577,888<6q7<6,<4<987q8qir8yNvbBVNsNNxppczpptsJbnC",
"nbNcthrqefrzrddf00q0dq11dw8dqd0160q<6007786<<q7861,701<075<<0074<5<q88qdfqqgddtcsscvNNpxpppNvNbBBbbv",
"ezhrfhMpzzilwqddfdd6q0hwfdddqd0<805<00dfffjrdd5dd90606078df06065790<7d70gq7ddqhqwhjrhrifjrqhpxzijxiz",
"gdghrivVscthhhh0qrd000ddg0q77zzjczrjrxaNscxzzxrh0qd01q0q0dehd880d701gd0qdqqd87001ddq08r08dd7087q7qdf",
"rtherjiruu8rd8dirjjrwqq0q8q8ffxpbVbBNvpcpspppNNifef807qhtitifhhdhdq0qhq187<0d79018drwdq8d8q8<qtzqfrh",
"dhzpprq78qrrrrurtteqtdq0qqtzrfrbvVbJbssciisvCnnBcsizzrtxscrizirghtffwffwjdqqqqfhrdrqtd8qqqqfrissNBtf",
"88rhutht8gehhzizizrrqrqq088qruuschrqqqq8rwhbHFCbNNczsNNNNzrhf79dq7qdqrxrrdwqqqrzqjjfhddqerfjpvvtzr01",
"0dhhrcufzelllzzhzeghgqg00d0dd07ihgeg088hhfzNsNxczilhzizizlzdgd86d00grlg8hzgdrhgfhhrrdddgqgllxczg60dd",
"e88drrlzzrureefqf0drgdrqfrdd0rhzizihr80reqzizefhhrigigfiig8qe8fhfqdere0flrzzzhgqqhfggrde0qrzreg0dqqd",
"7d0e8qrd8qrrzqhriezt8r8efdgjqeepacireri8ergqrruaaicciurdfherfrrdrefjhzruziccsiig8hrqdrrhfrqghrgrqdr8",
"rfzuhw88hhzzciucaiiirghrqeqrrer7qerizuerrhgrhcricscccrhhr7rr0rqlhzhzaazuzzccciaialhqfdrqwfqitiiiczci",
"GKNbszelhrriazjxxclhidehelhfqqgqfgrqhqhdzhzxirrhzczzaczgehffzuqlriczcccccaNscuzcuuiqhrulzicsssBCCGGD",
"CVJNcczzlrzzghzluhzlhhhtg0gefhzhqghghxczizxJKsNczaczluahgruhaizzxNJbccJsccccccczrazlhhlrrlzcVVJVCDDJ",
"bsvscciiizuzlrrizcssNNbCbNzhqriurzrrruerrrrcsssbcsbcscsciziclzzzzccJNNcVJbCGVCBJsaiaiiiazaxsVVCCVCJJ",
"VCbVVsccazrghaltbNbnCGRHNcuirqurrureheeuulcBCbZFGFDIKnBpxhixzciscsNbVBJKKLCCCDCVsNiiccscpsbbbsbbbCCb",
"HHSFDKbsazillrlhcbNVVvnCCbccaairiurzzuuzualacVCGHSGHCnccxzascscNNNcNVbbbJCDICLCNczalusVbNcNJcJDHYHAD",
"HFHGDJJNciiizhrzzccVJnbJbccNAGDNJJbnnCVNchlzccsVKbCJJcschluzcNczcNNJCGGJNVVbJNcccazzzaiccacNJZCGGFRF",
"bVVCKKVnKNciliccNNJJbVVNccccvccJbKKCFDVszzcaNcccNcssbscNcazczaccccccssBJVJJJJcNccccsczizaNNccBbCKCbb",
"CCCcbbbLCDnJJVCCCVsVVaacaccsNcssNNNJbbsbbBcNccsNNbJaJcccssccacxzcJcVcBJVCnbNNcsccscccasizaccbbbVCCCC",
"GCnbbcNbNbBJCbJLCCsVbcsssJVbcbVsVLHDCBccasNcbccsccuzxccaaazscssxaccVsJVbNNbccscccNNvcNbVbJcNbNJscKDP",
"DDCGDCCJJJbbKCCKNbJcbJbKDCCKVJcVcNCVcscsNaJcasNNaalicNcJbCCbCDmKKVJccJJJVVJcccJJVLIYIAGTHYTPCCJGGDDK",
"VbKCCDGCJJJJDFGKJcVbNJbCIHHACCKCCBccsapzcbVNCKVsNbsVvVZCGTTYRRRRWWVVCCCDCDCGAbCVVCGHRREQRQRIGHDGYHDC",
"KsBVVJbbsNcsccNcVscJVVJJbJVNKCJVnVJNJBbCVnVcVCVBCTGGICVVbAQQRRR!RGZGVVCVZZDTTYGCJJJCUTYYHHIDCCDGnHHD",
"TGFHFAGADIDDCCKDCCVVCCbsscbbsVVCVVCbbCDUHCBKJJVDHQRTTDCCnNGDGTYGHHGLCCVDDFHTTWTGDDCCCGCCADFAIGD~GTRT",
"DHGHTYFZYGYHTRAHYTWRTYGGTGTQGSGCVVJCCGDGACKCKGDDFHGGGDZCIDbCCGTHFDCCCZGDFGTHHYHTAGYHFYYRRTTHCKVCKCLC",
"GRDLGFYRWTRUIIUHFGTQRTWRQQRTHHLcbJCCCVbKCKCDCCCDVsVbVDCZPGAW!QQQRHCVJcKDHWTHTYRTYTHYHRRRRRTRRHCKKDHG",
"GGKbsVCKDGGJJbBKVbVVVCKDDHTTQTGHFHYFZCCVDUGSIDZCGGHGHGIIHHHWTHT~RRQFG^WTHHDDCVNKVVVVCVVKCGYGDITGGLDD",
"AGGLCKVbJVVJKUUYHRHAGIDVbCCVKKGGYWRRRRHFDCAGYHQYR!QRFDGGDCbssVVCDFTTRRRTTFHY~HIHHWTTRGDKKKCDCCCCHGHF",
"~TTYGGVCKJVJVDKCCCZGHRRTHHKKDYH/HRRQQQQQWTQQRRRTHTHFHTRRQRRRWRRQR!ERRQQRRWQRRWQTLCDGGGGZGGHTWWYRWQ!E",
"TGGGLGCJJVKCGDGHDGGFUTHHIGGCIDHTCCVCCCZDYRR!RQWRRGDKGGTRQRRQQRTFGGGHTTHG~TRRTRRHGTUHHUGHHGGCGHGZGGGH",
"TRRRHHUHGLHDGHF~HCGDGDFGGDGIIGHHIFKJZLGRQRQQRRRTTR!QRRRRQQQQQQ(RQTHWHGIYHIDGILZGDCZHHHHWGTGGGHIGHGGW",
"THWWQWHH/UGGT/HHWHT/T~/RGWTTQQWRTRQRQHDGGGGH/WZGGHTTHHRHUHGGIDGGHTTSRRRQQRTHQT/WTHWHWTHHHHGHWHHHTWGH",
"JCVCLCVCGKCKCKKZKGTRRQTTHHUUWHRTTRRQQHAGGDKCVCCGGGDIGILDCKCGGGRRRTWQRQRHUHUTQRRQWHGZZVKKKZLVVZVKJVVZ",
"HHGFGGHGCGIGGIGGDUUHT~GGGZGDGFTTTTSHSTTTTGDUGGGTHTHRHGIGGDHWRTQRHTRTGTGGGGGGGHTTHHHGGGFGIZZGUGGHGHGG",
"Q!!!QQWHUIGH~TW~WHTGYHG~WWHUGTQRWTRTQQQQQQ/R!!QQRRQWQQQQQQQT((Q)QRQWRQ~W~UTUGGGGUHFTTWWHGHIH~H(!!))Q"
};
