/* XPM */
static char *e1fd7ff98056414db2fd42d28b1c2f1fI19gewThCa1BzbSo[] = {
/* columns rows colors chars-per-pixel */
"64 64 30 1 ",
"  c #2C1118",
". c #322E4D",
"X c #353A61",
"o c #384473",
"O c #3B4E83",
"+ c #3D5792",
"@ c #405FA0",
"# c #456FBB",
"$ c #4776C7",
"% c #7DAAA4",
"& c #66A5BF",
"* c #4C84DE",
"= c #5AA0D8",
"- c #62A3C7",
"; c #4E8BEA",
": c #5192F4",
"> c #549AF5",
", c #5398FF",
"< c #97AF98",
"1 c #A0B29A",
"2 c #A6B39A",
"3 c #A7B49A",
"4 c #A7B49B",
"5 c #BBC0AB",
"6 c #C6CABD",
"7 c #D1D8D2",
"8 c #D4DFDC",
"9 c #E1F0EC",
"0 c #F5F9FF",
"q c white",
/* pixels */
"qqqqqqqqqqqqqqqqqqqqqqqqqqqqqqqqqqqqqqqqqqqqqqqqqqqqqqqqqqqqqqqq",
"qqqqqqqqqqqqqqqqqqqqqqqqqqqqqqqqqqqqqqqqqqqqqqqqqqqqqqqqqqqqqqqq",
"qqqqqqqqqqqqqqqqqqqqqqqqqqqqqqqqqqqqqqqqqqqqqqqqqqqqqqqqqqqqqqqq",
"qqqqqqqqqqqqqqqqqqqqqqqqqqqqqqqqqqqqqqqqqqqqqqqqqqqqqqqqqqqqqqqq",
"qqqqqqqqqqqqqqqqqqqqqqqqqqqqqqqqqqqqqqqqqqqqqqqqqqqqqqqqqqqqqqqq",
"qqqqqqqqqqqqqqqqqqqqqqqqqqqqqqqqqqqqqqqqqqqqqqqqqqqqqqqqqqqqqqqq",
"qqqqqqqqqqqqqqqqqqqqqqqqqqqqqqqqqqqqqqqqqqqqqqqqqqqqqqqqqqqqqqqq",
"qqqqqqqqqqqqqqqqqqqqqqqqqqqqqqqqqqqqqqqqqqqqqqqqqqqqqqqqqqqqqqqq",
"qqqqqqqqqqqqqqqqqqqqqqqqqqqqqqqqqqqqqqqqqqqqqqqqqqqqqqqqqqqqqqqq",
"qqqqqqqqqqqqqqqqqqqqqqqqqqqqqqqqqqqqqqqqqqqqqqqqqqqqqqqqqqqqqqqq",
"qqqqqqqqqqqqqqqqqqqqqqqqqqqqq0999990qqqqqqqqqqqqqqqqqqqqqqqqqqqq",
"qqqqqqqqqqqqqqqqqqqqqqqqq964%=,,,,,=%469qqqqqqqqqqqqqqqqqqqqqqqq",
"qqqqqqqqqqqqqqqqqqqqqqq74-,,,,,,,,,,,,,-47qqqqqqqqqqqqqqqqqqqqqq",
"qqqqqqqqqqqqqqqqqqqqq81>,,,,,,,,,,,,,,,,,>18qqqqqqqqqqqqqqqqqqqq",
"qqqqqqqqqqqqqqqqqqq05&,,,,,,,,,,,,,,,,,,,,,&50qqqqqqqqqqqqqqqqqq",
"qqqqqqqqqqqqqqqqqq92,,,,,,,,,,,,,,,,,,,,,,,,,29qqqqqqqqqqqqqqqqq",
"qqqqqqqqqqqqqqqqq9<,,,,,,,,,,,,,,,,,,,,,,,,,,,<9qqqqqqqqqqqqqqqq",
"qqqqqqqqqqqqqqqq9<,,,,,,,,,,,,,,,,,,,,,,,,,,,,,<9qqqqqqqqqqqqqqq",
"qqqqqqqqqqqqqqq02,,,,,,. #,,,,,,,,,,,,O .,,,,,,,20qqqqqqqqqqqqqq",
"qqqqqqqqqqqqqqq5,,,,,,,X #,,,,,,,,,,,,O O,,,,,,,,5qqqqqqqqqqqqqq",
"qqqqqqqqqqqqqq8&,,,,,,,X $,,,,,,,,,,,,O O,,,,,,,,&8qqqqqqqqqqqqq",
"qqqqqqqqqqqqqq1,,,,,,,,X $,,,,,,,,,,,,@ O,,,,,,,,,1qqqqqqqqqqqqq",
"qqqqqqqqqqqqq7>,,,,,,,,X                O,,,,,,,,,>7qqqqqqqqqqqq",
"qqqqqqqqqqqqq4,,,,,,,,,X $,,,,,,,,,,,,@ O,,,,,,,,,,4qqqqqqqqqqqq",
"qqqqqqqqqqqq9-,,,,,,,,,X $,,,,,,,,,,,,@ O,,,,,,,,,,-9qqqqqqqqqqq",
"qqqqqqqqqqqq6,,,,,,,,,,X $,,,,,,,,,,,,@ O,,,,,,,,,,,6qqqqqqqqqqq",
"qqqqqqqqqqqq4,,,,,,,,,,X $,,,,,,,,,,,,@ O,,,,,,,,,,,4qqqqqqqqqqq",
"qqqqqqqqqqqq%,,,,,,,,,,X                O,,,,,,,,,,,%qqqqqqqqqqq",
"qqqqqqqqqqq0=,,,,,,,,,,;,,,,,,,,,,,,,,,,,,,,,,,,,,,,=0qqqqqqqqqq",
"qqqqqqqqqqq9,,,,,,,,,,,,,,,,,,,,,,,,,,,,,,,,,,,,,,,,,9qqqqqqqqqq",
"qqqqqqqqqqq9,,,,,,,,,,,,,,,,,,,,,,,,,,,,,,,,,,,,,,,,,9qqqqqqqqqq",
"qqqqqqqqqqq9,,,,,,$                          $,,,,,,,9qqqqqqqqqq",
"qqqqqqqqqqq9,,,,,,$                          $,,,,,,,9qqqqqqqqqq",
"qqqqqqqqqqq9,,,,,,,,,,,,,,,,,,*  :,,,,,,,,,,,,,,,,,,,9qqqqqqqqqq",
"qqqqqqqqqqq0=,,,,,,,,,,,,,,,,,*  :,,,,,,,,,,,,,,,,,,=0qqqqqqqqqq",
"qqqqqqqqqqqq%,,,,,,,,,,,,,,,,,*  :,,,,,,,,,,,,,,,,,,%qqqqqqqqqqq",
"qqqqqqqqqqqq4,,,,,,,,,@                 +,,,,,,,,,,,4qqqqqqqqqqq",
"qqqqqqqqqqqq6,,,,,,,,,@                 @,,,,,,,,,,,6qqqqqqqqqqq",
"qqqqqqqqqqqq9-,,,,,,,,,,,,,,,,,,,,,,,,O @,,,,,,,,,,-9qqqqqqqqqqq",
"qqqqqqqqqqqqq3,,,,,,,,,,,,,,,,,,,,,,,,O @,,,,,,,,,,4qqqqqqqqqqqq",
"qqqqqqqqqqqqq7>,,,,,,,,,,,,,,,,,,,,,,,O @,,,,,,,,,>7qqqqqqqqqqqq",
"qqqqqqqqqqqqqq1,,,,,,,,,,,,,,,,,,,,,,,O @,,,,,,,,,1qqqqqqqqqqqqq",
"qqqqqqqqqqqqqq8&,,,,,,,,,,,,,,,,,,,,,,O @,,,,,,,,&8qqqqqqqqqqqqq",
"qqqqqqqqqqqqqqq5,,,,,,,,,,,,,,,,,,,,,,o @,,,,,,,,5qqqqqqqqqqqqqq",
"qqqqqqqqqqqqqqq02,,,,,,,,,,,,,,,,,,,,,X +,,,,,,,20qqqqqqqqqqqqqq",
"qqqqqqqqqqqqqqqq9<,,,,,,,,,,,,,,,,,,,,,,,,,,,,,<9qqqqqqqqqqqqqqq",
"qqqqqqqqqqqqqqqqq9<,,,,,,,,,,,,,,,,,,,,,,,,,,,<9qqqqqqqqqqqqqqqq",
"qqqqqqqqqqqqqqqqqq92,,,,,,,,,,,,,,,,,,,,,,,,,29qqqqqqqqqqqqqqqqq",
"qqqqqqqqqqqqqqqqqqq05&,,,,,,,,,,,,,,,,,,,,,&50qqqqqqqqqqqqqqqqqq",
"qqqqqqqqqqqqqqqqqqqqq81>,,,,,,,,,,,,,,,,,>18qqqqqqqqqqqqqqqqqqqq",
"qqqqqqqqqqqqqqqqqqqqqqq73-,,,,,,,,,,,,,-37qqqqqqqqqqqqqqqqqqqqqq",
"qqqqqqqqqqqqqqqqqqqqqqqqq964%=,,,,,=%469qqqqqqqqqqqqqqqqqqqqqqqq",
"qqqqqqqqqqqqqqqqqqqqqqqqqqqqq0999990qqqqqqqqqqqqqqqqqqqqqqqqqqqq",
"qqqqqqqqqqqqqqqqqqqqqqqqqqqqqqqqqqqqqqqqqqqqqqqqqqqqqqqqqqqqqqqq",
"qqqqqqqqqqqqqqqqqqqqqqqqqqqqqqqqqqqqqqqqqqqqqqqqqqqqqqqqqqqqqqqq",
"qqqqqqqqqqqqqqqqqqqqqqqqqqqqqqqqqqqqqqqqqqqqqqqqqqqqqqqqqqqqqqqq",
"qqqqqqqqqqqqqqqqqqqqqqqqqqqqqqqqqqqqqqqqqqqqqqqqqqqqqqqqqqqqqqqq",
"qqqqqqqqqqqqqqqqqqqqqqqqqqqqqqqqqqqqqqqqqqqqqqqqqqqqqqqqqqqqqqqq",
"qqqqqqqqqqqqqqqqqqqqqqqqqqqqqqqqqqqqqqqqqqqqqqqqqqqqqqqqqqqqqqqq",
"qqqqqqqqqqqqqqqqqqqqqqqqqqqqqqqqqqqqqqqqqqqqqqqqqqqqqqqqqqqqqqqq",
"qqqqqqqqqqqqqqqqqqqqqqqqqqqqqqqqqqqqqqqqqqqqqqqqqqqqqqqqqqqqqqqq",
"qqqqqqqqqqqqqqqqqqqqqqqqqqqqqqqqqqqqqqqqqqqqqqqqqqqqqqqqqqqqqqqq",
"qqqqqqqqqqqqqqqqqqqqqqqqqqqqqqqqqqqqqqqqqqqqqqqqqqqqqqqqqqqqqqqq",
"qqqqqqqqqqqqqqqqqqqqqqqqqqqqqqqqqqqqqqqqqqqqqqqqqqqqqqqqqqqqqqqq"
};
