/* XPM */
static char *_e9d6aeedc1144618241d7e50ce70acbugkQRa0QVHvEGuBE[] = {
/* columns rows colors chars-per-pixel */
"64 64 37 1 ",
"  c #2C1118",
". c #411319",
"X c #52151B",
"o c #62171C",
"O c #70191E",
"+ c #7D1B1F",
"@ c #8A1D20",
"# c #961E21",
"$ c #A12023",
"% c #AC2224",
"& c #B62325",
"* c #C02526",
"= c #CA2728",
"- c #D42829",
"; c #DD2A2A",
": c #E62B2B",
"> c #E62C2C",
", c #E73333",
"< c #E73434",
"1 c #E73636",
"2 c #EA4949",
"3 c #EA4A4A",
"4 c #EC5A5A",
"5 c #ED6363",
"6 c #EE6D6D",
"7 c #EE7070",
"8 c #F08484",
"9 c #F39999",
"0 c #F4A4A4",
"q c #F5A8A8",
"w c #F5A9A9",
"e c #F5ABAB",
"r c #F8C5C5",
"t c #FAD7D7",
"y c #FCE9E9",
"u c #FDF1F1",
"i c white",
/* pixels */
"iiiiiiiiiiiiiiiiiiiiiiiiiiiiiiiiiiiiiiiiiiiiiiiiiiiiiiiiiiiiiiii",
"iiiiiiiiiiiiiiiiiiiiiiiiiiiiiiiiiiiiiiiiiiiiiiiiiiiiiiiiiiiiiiii",
"iiiiiiiiiiiiiiiiiiiiiiiiiiiiiiiiiiiiiiiiiiiiiiiiiiiiiiiiiiiiiiii",
"iiiiiiiiiiiiiiiiiiiiiiiiiiiiiiiiiiiiiiiiiiiiiiiiiiiiiiiiiiiiiiii",
"iiiiiiiiiiiiiiiiiiiiiiiiiiiiiiiiiiiiiiiiiiiiiiiiiiiiiiiiiiiiiiii",
"iiiiiiiiiiiiiiiiiiiiiiiiiiiiiiiiiiiiiiiiiiiiiiiiiiiiiiiiiiiiiiii",
"iiiiiiiiiiiiiiiiiiiiiiiiiiiiiiiiiiiiiiiiiiiiiiiiiiiiiiiiiiiiiiii",
"iiiiiiiiiiiiiiiiiiiiiiiiiiiiiiiiiiiiiiiiiiiiiiiiiiiiiiiiiiiiiiii",
"iiiiiiiiiiiiiiiiiiiiiiiiiiiiiiiiiiiiiiiiiiiiiiiiiiiiiiiiiiiiiiii",
"iiiiiiiiiiiiiiiiiiiiiiiiiiiiiiiiiiiiiiiiiiiiiiiiiiiiiiiiiiiiiiii",
"iiiiiiiiiiiiiiiiiiiiiiiiiiiiiiiiiiiiiiiiiiiiiiiiiiiiiiiiiiiiiiii",
"iiiiiiiiiiiiiiiiiiiiiiiiiite852<:1258etiiiiiiiiiiiiiiiiiiiiiiiii",
"iiiiiiiiiiiiiiiiiiiiiiiye6,:::::::::::16eyiiiiiiiiiiiiiiiiiiiiii",
"iiiiiiiiiiiiiiiiiiiiiu04:::::::::::::::::40uiiiiiiiiiiiiiiiiiiii",
"iiiiiiiiiiiiiiiiiiiir6:::::::::::::::::::::6riiiiiiiiiiiiiiiiiii",
"iiiiiiiiiiiiiiiiiiie2>::::::::::::::::::::::2eiiiiiiiiiiiiiiiiii",
"iiiiiiiiiiiiiiiiii9,:::::::::::::::::::::::::,9iiiiiiiiiiiiiiiii",
"iiiiiiiiiiiiiiiii9>:::::::::::::::::::::::::::>9iiiiiiiiiiiiiiii",
"iiiiiiiiiiiiiiii0<>::::::::::::::::::::::::::::,0iiiiiiiiiiiiiii",
"iiiiiiiiiiiiiiir2>:::::.                 $::::::2riiiiiiiiiiiiii",
"iiiiiiiiiiiiiiu6:::::::.                 $::::::>7uiiiiiiiiiiiii",
"iiiiiiiiiiiiii0::::::::. &:::::::::::::::::::::::>0iiiiiiiiiiiii",
"iiiiiiiiiiiiiy4::::::::. *::::::::::::::::::::::::4yiiiiiiiiiiii",
"iiiiiiiiiiiiie:::::::::. *:::::::::::::::::::::::::eiiiiiiiiiiii",
"iiiiiiiiiiiii6:::::::::. &:::::::::::::::::::::::::6iiiiiiiiiiii",
"iiiiiiiiiiiit1:::::::::.                 .:::::::::,tiiiiiiiiiii",
"iiiiiiiiiiiie::::::::::.                 .::::::::::eiiiiiiiiiii",
"iiiiiiiiiiii8::::::::::;:::::::. $::::::::::::::::::8iiiiiiiiiii",
"iiiiiiiiiiii5::::::::::::::::::. $::::::::::::::::::5iiiiiiiiiii",
"iiiiiiiiiiii2::::::::::::::::::. $::::::::::::::::::2iiiiiiiiiii",
"iiiiiiiiiiii1::::::::::::::::::. $::::::::::::::::::1iiiiiiiiiii",
"iiiiiiiiiiii>:::::$                          $:::::::iiiiiiiiiii",
"iiiiiiiiiiii1:::::$                          $::::::1iiiiiiiiiii",
"iiiiiiiiiiii2:::::::::::::::::::::::::::::::::::::::2iiiiiiiiiii",
"iiiiiiiiiiii5:::::::::::::::::::::::::::::::::::::::5iiiiiiiiiii",
"iiiiiiiiiiii8:::::::::::::$#X      .##;:::::::::::::8iiiiiiiiiii",
"iiiiiiiiiiiie:::::::::::#              O;:::::::::::eiiiiiiiiiii",
"iiiiiiiiiiiit,:::::::::+  O#=::::::-#+  o;:::::::::,tiiiiiiiiiii",
"iiiiiiiiiiiii6::::::::-  $::::::::::::-. $:::::::::6iiiiiiiiiiii",
"iiiiiiiiiiiiie::::::::&  ;:::::::::::::+ #:::::::::eiiiiiiiiiiii",
"iiiiiiiiiiiiiy4:::::::-  #::::::::::::-. $::::::::4yiiiiiiiiiiii",
"iiiiiiiiiiiiii0::::::::$  .##:::::::#@  X;::::::::0iiiiiiiiiiiii",
"iiiiiiiiiiiiiiu6::::::::%X             O-::::::::6uiiiiiiiiiiiii",
"iiiiiiiiiiiiiiir2:::::::::&#+       +#=:::::::::2riiiiiiiiiiiiii",
"iiiiiiiiiiiiiiiie,:::::::::::::::::::::::::::::,eiiiiiiiiiiiiiii",
"iiiiiiiiiiiiiiiii9>::::::::::::::::::::::::::::9iiiiiiiiiiiiiiii",
"iiiiiiiiiiiiiiiiii9,:::::::::::::::::::::::::,9iiiiiiiiiiiiiiiii",
"iiiiiiiiiiiiiiiiiii02:::::::::::::::::::::::2eiiiiiiiiiiiiiiiiii",
"iiiiiiiiiiiiiiiiiiiir7:::::::::::::::::::>>6riiiiiiiiiiiiiiiiiii",
"iiiiiiiiiiiiiiiiiiiiiu04:::::::::::::::::40uiiiiiiiiiiiiiiiiiiii",
"iiiiiiiiiiiiiiiiiiiiiiiye61:::::::::::,6eyiiiiiiiiiiiiiiiiiiiiii",
"iiiiiiiiiiiiiiiiiiiiiiiiiite8521:1258etiiiiiiiiiiiiiiiiiiiiiiiii",
"iiiiiiiiiiiiiiiiiiiiiiiiiiiiiiiiiiiiiiiiiiiiiiiiiiiiiiiiiiiiiiii",
"iiiiiiiiiiiiiiiiiiiiiiiiiiiiiiiiiiiiiiiiiiiiiiiiiiiiiiiiiiiiiiii",
"iiiiiiiiiiiiiiiiiiiiiiiiiiiiiiiiiiiiiiiiiiiiiiiiiiiiiiiiiiiiiiii",
"iiiiiiiiiiiiiiiiiiiiiiiiiiiiiiiiiiiiiiiiiiiiiiiiiiiiiiiiiiiiiiii",
"iiiiiiiiiiiiiiiiiiiiiiiiiiiiiiiiiiiiiiiiiiiiiiiiiiiiiiiiiiiiiiii",
"iiiiiiiiiiiiiiiiiiiiiiiiiiiiiiiiiiiiiiiiiiiiiiiiiiiiiiiiiiiiiiii",
"iiiiiiiiiiiiiiiiiiiiiiiiiiiiiiiiiiiiiiiiiiiiiiiiiiiiiiiiiiiiiiii",
"iiiiiiiiiiiiiiiiiiiiiiiiiiiiiiiiiiiiiiiiiiiiiiiiiiiiiiiiiiiiiiii",
"iiiiiiiiiiiiiiiiiiiiiiiiiiiiiiiiiiiiiiiiiiiiiiiiiiiiiiiiiiiiiiii",
"iiiiiiiiiiiiiiiiiiiiiiiiiiiiiiiiiiiiiiiiiiiiiiiiiiiiiiiiiiiiiiii",
"iiiiiiiiiiiiiiiiiiiiiiiiiiiiiiiiiiiiiiiiiiiiiiiiiiiiiiiiiiiiiiii",
"iiiiiiiiiiiiiiiiiiiiiiiiiiiiiiiiiiiiiiiiiiiiiiiiiiiiiiiiiiiiiiii"
};
