/* XPM */
static char *_7ef14255f2046e6c4437509787a73abBa1wLKC5jJUJhRy5[] = {
/* columns rows colors chars-per-pixel */
"64 64 31 1 ",
"  c #2C1118",
". c #2F261B",
"X c #31371E",
"o c #344521",
"O c #365224",
"+ c #395E26",
"@ c #3E732B",
"# c #407D2E",
"$ c #448F32",
"% c #479835",
"& c #49A037",
"* c #4BA839",
"= c #4DB03B",
"- c #4FB83D",
"; c #50B83D",
": c #67BD3B",
"> c #79BF3A",
", c #88BF3C",
"< c #8EBF3D",
"1 c #A7BD48",
"2 c #BEBD5C",
"3 c #C6BF68",
"4 c #CABF6D",
"5 c #CBC06F",
"6 c #CBC070",
"7 c #DACC92",
"8 c #E3D7AD",
"9 c #EBE5C9",
"0 c #EDEDD5",
"q c #F3FBEA",
"w c white",
/* pixels */
"wwwwwwwwwwwwwwwwwwwwwwwwwwwwwwwwwwwwwwwwwwwwwwwwwwwwwwwwwwwwwwww",
"wwwwwwwwwwwwwwwwwwwwwwwwwwwwwwwwwwwwwwwwwwwwwwwwwwwwwwwwwwwwwwww",
"wwwwwwwwwwwwwwwwwwwwwwwwwwwwwwwwwwwwwwwwwwwwwwwwwwwwwwwwwwwwwwww",
"wwwwwwwwwwwwwwwwwwwwwwwwwwwwwwwwwwwwwwwwwwwwwwwwwwwwwwwwwwwwwwww",
"wwwwwwwwwwwwwwwwwwwwwwwwwwwwwwwwwwwwwwwwwwwwwwwwwwwwwwwwwwwwwwww",
"wwwwwwwwwwwwwwwwwwwwwwwwwwwwwwwwwwwwwwwwwwwwwwwwwwwwwwwwwwwwwwww",
"wwwwwwwwwwwwwwwwwwwwwwwwwwwwwwwwwwwwwwwwwwwwwwwwwwwwwwwwwwwwwwww",
"wwwwwwwwwwwwwwwwwwwwwwwwwwwwwwwwwwwwwwwwwwwwwwwwwwwwwwwwwwwwwwww",
"wwwwwwwwwwwwwwwwwwwwwwwwwwwwwwwwwwwwwwwwwwwwwwwwwwwwwwwwwwwwwwww",
"wwwwwwwwwwwwwwwwwwwwwwwwwwwwwwwwwwwwwwwwwwwwwwwwwwwwwwwwwwwwwwww",
"wwwwwwwwwwwwwwwwwwwwwwwwwwwwwwqqqqqwwwwwwwwwwwwwwwwwwwwwwwwwwwww",
"wwwwwwwwwwwwwwwwwwwwwwwwwq861>;---;>168qwwwwwwwwwwwwwwwwwwwwwwww",
"wwwwwwwwwwwwwwwwwwwwwww95,-------------,59wwwwwwwwwwwwwwwwwwwwww",
"wwwwwwwwwwwwwwwwwwwww03:-----------------:30wwwwwwwwwwwwwwwwwwww",
"wwwwwwwwwwwwwwwwwwww7<---------------------<7wwwwwwwwwwwwwwwwwww",
"wwwwwwwwwwwwwwwwwwq4;-----------------------;4qwwwwwwwwwwwwwwwww",
"wwwwwwwwwwwwwwwwwq2---------------------------2qwwwwwwwwwwwwwwww",
"wwwwwwwwwwwwwwwwq2-----------------------------2qwwwwwwwwwwwwwww",
"wwwwwwwwwwwwwwww4---------------------%  %------4wwwwwwwwwwwwwww",
"wwwwwwwwwwwwwww7;---------------------&  =------;7wwwwwwwwwwwwww",
"wwwwwwwwwwwwww0<---*  &---------------&  =-------<0wwwwwwwwwwwww",
"wwwwwwwwwwwwww3----=  =---------------*  =--------3wwwwwwwwwwwww",
"wwwwwwwwwwwww9:----=  =---------------=  =--------:9wwwwwwwwwwww",
"wwwwwwwwwwwww5-----=  =---------------=  =---------5wwwwwwwwwwww",
"wwwwwwwwwwwwq,-----=  =---------------=  =---------,qwwwwwwwwwww",
"wwwwwwwwwwww8------=  =---------------=  =----------8wwwwwwwwwww",
"wwwwwwwwwwww6------=  =---------------=      #------6wwwwwwwwwww",
"wwwwwwwwwwww1------=  =---------------=      #------1wwwwwwwwwww",
"wwwwwwwwwwww>------=  =----*@@@@O   +-=  &---------->wwwwwwwwwww",
"wwwwwwwwwwwq;------=               @#-=  &----------;qwwwwwwwwww",
"wwwwwwwwwwwq-------=  .@@@@@@@&-------=  *-----------qwwwwwwwwww",
"wwwwwwwwwwwq-------=------------------=  *-----------qwwwwwwwwww",
"wwwwwwwwwwwq---------------------------@@=-----------qwwwwwwwwww",
"wwwwwwwwwwwq;---------------------------------------;qwwwwwwwwww",
"wwwwwwwwwwww>----------o                 &---------->wwwwwwwwwww",
"wwwwwwwwwwww1----------o                 &----------1wwwwwwwwwww",
"wwwwwwwwwwww6----------o $------------=  &----------6wwwwwwwwwww",
"wwwwwwwwwwww8----------o $------------=  &----------8wwwwwwwwwww",
"wwwwwwwwwwwwq,---------o $------------=  &---------,qwwwwwwwwwww",
"wwwwwwwwwwwww5---------o $------------=  &---------5wwwwwwwwwwww",
"wwwwwwwwwwwww9:--------o $------------=  &--------:9wwwwwwwwwwww",
"wwwwwwwwwwwwww3--------o                 &--------3wwwwwwwwwwwww",
"wwwwwwwwwwwwww0<-------o                 &-------<0wwwwwwwwwwwww",
"wwwwwwwwwwwwwww7;------X #------------&  &------;7wwwwwwwwwwwwww",
"wwwwwwwwwwwwwwww4-------------------------------4wwwwwwwwwwwwwww",
"wwwwwwwwwwwwwwwwq2-----------------------------2qwwwwwwwwwwwwwww",
"wwwwwwwwwwwwwwwwwq2---------------------------2qwwwwwwwwwwwwwwww",
"wwwwwwwwwwwwwwwwwwq4;-----------------------;4qwwwwwwwwwwwwwwwww",
"wwwwwwwwwwwwwwwwwwww7<---------------------<7wwwwwwwwwwwwwwwwwww",
"wwwwwwwwwwwwwwwwwwwww03:-----------------:30wwwwwwwwwwwwwwwwwwww",
"wwwwwwwwwwwwwwwwwwwwwww95,-------------,59wwwwwwwwwwwwwwwwwwwwww",
"wwwwwwwwwwwwwwwwwwwwwwwwwq861>;---;>168qwwwwwwwwwwwwwwwwwwwwwwww",
"wwwwwwwwwwwwwwwwwwwwwwwwwwwwwwqqqqqwwwwwwwwwwwwwwwwwwwwwwwwwwwww",
"wwwwwwwwwwwwwwwwwwwwwwwwwwwwwwwwwwwwwwwwwwwwwwwwwwwwwwwwwwwwwwww",
"wwwwwwwwwwwwwwwwwwwwwwwwwwwwwwwwwwwwwwwwwwwwwwwwwwwwwwwwwwwwwwww",
"wwwwwwwwwwwwwwwwwwwwwwwwwwwwwwwwwwwwwwwwwwwwwwwwwwwwwwwwwwwwwwww",
"wwwwwwwwwwwwwwwwwwwwwwwwwwwwwwwwwwwwwwwwwwwwwwwwwwwwwwwwwwwwwwww",
"wwwwwwwwwwwwwwwwwwwwwwwwwwwwwwwwwwwwwwwwwwwwwwwwwwwwwwwwwwwwwwww",
"wwwwwwwwwwwwwwwwwwwwwwwwwwwwwwwwwwwwwwwwwwwwwwwwwwwwwwwwwwwwwwww",
"wwwwwwwwwwwwwwwwwwwwwwwwwwwwwwwwwwwwwwwwwwwwwwwwwwwwwwwwwwwwwwww",
"wwwwwwwwwwwwwwwwwwwwwwwwwwwwwwwwwwwwwwwwwwwwwwwwwwwwwwwwwwwwwwww",
"wwwwwwwwwwwwwwwwwwwwwwwwwwwwwwwwwwwwwwwwwwwwwwwwwwwwwwwwwwwwwwww",
"wwwwwwwwwwwwwwwwwwwwwwwwwwwwwwwwwwwwwwwwwwwwwwwwwwwwwwwwwwwwwwww",
"wwwwwwwwwwwwwwwwwwwwwwwwwwwwwwwwwwwwwwwwwwwwwwwwwwwwwwwwwwwwwwww"
};
