/* XPM */
static char *_cb81acde3f446b6d7c9cedbd1d37cfdcUehJlKLiaxcW5wf[] = {
/* columns rows colors chars-per-pixel */
"64 64 33 1 ",
"  c #2C1118",
". c #423119",
"X c #554919",
"o c #665D1A",
"O c #756E1B",
"+ c #837F1B",
"@ c #908E1C",
"# c #9D9C1D",
"$ c #A9A91D",
"% c #B4B61E",
"& c #C0C21F",
"* c #CACE1F",
"= c #D5DA20",
"- c #F1DB2D",
"; c #F1CB3B",
": c #F1C93E",
"> c #F1D233",
", c #DFE521",
"< c #F1EE25",
"1 c #E8F021",
"2 c #F2FA22",
"3 c #F3BF6A",
"4 c #F1C151",
"5 c #F3C178",
"6 c #F4C27D",
"7 c #F4C27F",
"8 c #F4C381",
"9 c #F7D0A4",
"0 c #F9DCBE",
"q c #FBEAD8",
"w c #FCF2E3",
"e c #FEFFF6",
"r c white",
/* pixels */
"rrrrrrrrrrrrrrrrrrrrrrrrrrrrrrrrrrrrrrrrrrrrrrrrrrrrrrrrrrrrrrrr",
"rrrrrrrrrrrrrrrrrrrrrrrrrrrrrrrrrrrrrrrrrrrrrrrrrrrrrrrrrrrrrrrr",
"rrrrrrrrrrrrrrrrrrrrrrrrrrrrrrrrrrrrrrrrrrrrrrrrrrrrrrrrrrrrrrrr",
"rrrrrrrrrrrrrrrrrrrrrrrrrrrrrrrrrrrrrrrrrrrrrrrrrrrrrrrrrrrrrrrr",
"rrrrrrrrrrrrrrrrrrrrrrrrrrrrrrrrrrrrrrrrrrrrrrrrrrrrrrrrrrrrrrrr",
"rrrrrrrrrrrrrrrrrrrrrrrrrrrrrrrrrrrrrrrrrrrrrrrrrrrrrrrrrrrrrrrr",
"rrrrrrrrrrrrrrrrrrrrrrrrrrrrrrrrrrrrrrrrrrrrrrrrrrrrrrrrrrrrrrrr",
"rrrrrrrrrrrrrrrrrrrrrrrrrrrrrrrrrrrrrrrrrrrrrrrrrrrrrrrrrrrrrrrr",
"rrrrrrrrrrrrrrrrrrrrrrrrrrrrrrrrrrrrrrrrrrrrrrrrrrrrrrrrrrrrrrrr",
"rrrrrrrrrrrrrrrrrrrrrrrrrrrrrrrrrrrrrrrrrrrrrrrrrrrrrrrrrrrrrrrr",
"rrrrrrrrrrrrrrrrrrrrrrrrrrrrrreeeeerrrrrrrrrrrrrrrrrrrrrrrrrrrrr",
"rrrrrrrrrrrrrrrrrrrrrrrrre084><222<>470errrrrrrrrrrrrrrrrrrrrrrr",
"rrrrrrrrrrrrrrrrrrrrrrrq7;2222222222222;7qrrrrrrrrrrrrrrrrrrrrrr",
"rrrrrrrrrrrrrrrrrrrrrw5-22222222222222222-5wrrrrrrrrrrrrrrrrrrrr",
"rrrrrrrrrrrrrrrrrrrr9:222222222222222222222:9rrrrrrrrrrrrrrrrrrr",
"rrrrrrrrrrrrrrrrrre7<22222222222222222222222<7errrrrrrrrrrrrrrrr",
"rrrrrrrrrrrrrrrrre32222222222222222222222222223errrrrrrrrrrrrrrr",
"rrrrrrrrrrrrrrrre3222222222222222222222222222223errrrrrrrrrrrrrr",
"rrrrrrrrrrrrrrrr722222222222222222222222. $222226rrrrrrrrrrrrrrr",
"rrrrrrrrrrrrrrr9<22222222222222222222222. %22222<9rrrrrrrrrrrrrr",
"rrrrrrrrrrrrrrw:22222222221#$22222222222. &222222:wrrrrrrrrrrrrr",
"rrrrrrrrrrrrrr522222222222&  *2222222222. &22222225rrrrrrrrrrrrr",
"rrrrrrrrrrrrrq-22222222222% .22222222222. &2222222-qrrrrrrrrrrrr",
"rrrrrrrrrrrrr7222222222222$ O22222222222. &222222227rrrrrrrrrrrr",
"rrrrrrrrrrrre;222222222222@ @22222222222. &22222222;errrrrrrrrrr",
"rrrrrrrrrrrr02222222222222X @22222222222. &2222222220rrrrrrrrrrr",
"rrrrrrrrrrrr8222222222222,  X22222222222. &2222222227rrrrrrrrrrr",
"rrrrrrrrrrrr4222222222222$   ,2222222222. &2222222224rrrrrrrrrrr",
"rrrrrrrrrrrr>222222222222o . $222$        &222222222>rrrrrrrrrrr",
"rrrrrrrrrrre<22222222222&  $ o222$        &222222222<errrrrrrrrr",
"rrrrrrrrrrre222222222222o +2. =222222222. &2222222222errrrrrrrrr",
"rrrrrrrrrrre22222222222%  =2# +222222222. &2222222222errrrrrrrrr",
"rrrrrrrrrrre2222222222,. #22,  &22222222. &2222222222errrrrrrrrr",
"rrrrrrrrrrre<222222222o o2222@ X12222222. &222222222<errrrrrrrrr",
"rrrrrrrrrrrr>22222222O .,22221X O2222222. &222222222>rrrrrrrrrrr",
"rrrrrrrrrrrr42222222O .=222222*  O222222. &2222222224rrrrrrrrrrr",
"rrrrrrrrrrrr722222=o .&22222222&  o12222. &2222222227rrrrrrrrrrr",
"rrrrrrrrrrrr022222,+X,2222222222&.&22222. &2222222220rrrrrrrrrrr",
"rrrrrrrrrrrre;22222222222222222222222221  &22222222;errrrrrrrrrr",
"rrrrrrrrrrrrr722222222222222222222222221  &222222227rrrrrrrrrrrr",
"rrrrrrrrrrrrrq-2222222222222222222222221  &2222222-qrrrrrrrrrrrr",
"rrrrrrrrrrrrrr52222222222222222222222221  &22222225rrrrrrrrrrrrr",
"rrrrrrrrrrrrrrw:222222222222222222222221  &222222:wrrrrrrrrrrrrr",
"rrrrrrrrrrrrrrr9<22222222222222222222221  &22222<9rrrrrrrrrrrrrr",
"rrrrrrrrrrrrrrrr622222222222222222222221  &222227rrrrrrrrrrrrrrr",
"rrrrrrrrrrrrrrrre3222222222222222222222222222223errrrrrrrrrrrrrr",
"rrrrrrrrrrrrrrrrre32222222222222222222222222223errrrrrrrrrrrrrrr",
"rrrrrrrrrrrrrrrrrre7<22222222222222222222222<7errrrrrrrrrrrrrrrr",
"rrrrrrrrrrrrrrrrrrrr9:222222222222222222222:9rrrrrrrrrrrrrrrrrrr",
"rrrrrrrrrrrrrrrrrrrrrw5-22222222222222222-5wrrrrrrrrrrrrrrrrrrrr",
"rrrrrrrrrrrrrrrrrrrrrrrq7;2222222222222;7qrrrrrrrrrrrrrrrrrrrrrr",
"rrrrrrrrrrrrrrrrrrrrrrrrre084><222<>470errrrrrrrrrrrrrrrrrrrrrrr",
"rrrrrrrrrrrrrrrrrrrrrrrrrrrrrreeeeerrrrrrrrrrrrrrrrrrrrrrrrrrrrr",
"rrrrrrrrrrrrrrrrrrrrrrrrrrrrrrrrrrrrrrrrrrrrrrrrrrrrrrrrrrrrrrrr",
"rrrrrrrrrrrrrrrrrrrrrrrrrrrrrrrrrrrrrrrrrrrrrrrrrrrrrrrrrrrrrrrr",
"rrrrrrrrrrrrrrrrrrrrrrrrrrrrrrrrrrrrrrrrrrrrrrrrrrrrrrrrrrrrrrrr",
"rrrrrrrrrrrrrrrrrrrrrrrrrrrrrrrrrrrrrrrrrrrrrrrrrrrrrrrrrrrrrrrr",
"rrrrrrrrrrrrrrrrrrrrrrrrrrrrrrrrrrrrrrrrrrrrrrrrrrrrrrrrrrrrrrrr",
"rrrrrrrrrrrrrrrrrrrrrrrrrrrrrrrrrrrrrrrrrrrrrrrrrrrrrrrrrrrrrrrr",
"rrrrrrrrrrrrrrrrrrrrrrrrrrrrrrrrrrrrrrrrrrrrrrrrrrrrrrrrrrrrrrrr",
"rrrrrrrrrrrrrrrrrrrrrrrrrrrrrrrrrrrrrrrrrrrrrrrrrrrrrrrrrrrrrrrr",
"rrrrrrrrrrrrrrrrrrrrrrrrrrrrrrrrrrrrrrrrrrrrrrrrrrrrrrrrrrrrrrrr",
"rrrrrrrrrrrrrrrrrrrrrrrrrrrrrrrrrrrrrrrrrrrrrrrrrrrrrrrrrrrrrrrr",
"rrrrrrrrrrrrrrrrrrrrrrrrrrrrrrrrrrrrrrrrrrrrrrrrrrrrrrrrrrrrrrrr"
};
